<svg xmlns="http://www.w3.org/2000/svg" xmlns:xlink="http://www.w3.org/1999/xlink" width="48" height="48" viewBox="0 0 48 48"><defs><linearGradient id="a" x1="0.5" x2="0.5" y2="1" gradientUnits="objectBoundingBox"><stop offset="0" stop-color="#ffe98d"/><stop offset="1" stop-color="#e19f27"/></linearGradient></defs><path d="M7.031,48H22.688V30.938H17.063V25.313h5.625V18.281a7.039,7.039,0,0,1,7.031-7.031H36.75v5.625H31.125a2.816,2.816,0,0,0-2.812,2.813v5.625H36.5l-.937,5.625H28.313V48H40.969A7.039,7.039,0,0,0,48,40.969V7.031A7.039,7.039,0,0,0,40.969,0H7.031A7.039,7.039,0,0,0,0,7.031V40.969A7.039,7.039,0,0,0,7.031,48ZM2.813,7.031A4.224,4.224,0,0,1,7.031,2.813H40.969a4.224,4.224,0,0,1,4.219,4.219V40.969a4.224,4.224,0,0,1-4.219,4.219H31.125V33.75h6.816L39.816,22.5H31.125V19.688h8.438V8.438H29.719a9.855,9.855,0,0,0-9.844,9.844V22.5H14.25V33.75h5.625V45.188H7.031a4.224,4.224,0,0,1-4.219-4.219Zm0,0" fill="url(#a)"/></svg>