<svg xmlns="http://www.w3.org/2000/svg" xmlns:xlink="http://www.w3.org/1999/xlink" width="48" height="48" viewBox="0 0 48 48"><defs><linearGradient id="a" x1="0.5" x2="0.5" y2="1" gradientUnits="objectBoundingBox"><stop offset="0" stop-color="#ffe98d"/><stop offset="1" stop-color="#e19f27"/></linearGradient></defs><path d="M7.031,48H40.969A7.039,7.039,0,0,0,48,40.969V7.031A7.039,7.039,0,0,0,40.969,0H7.031A7.039,7.039,0,0,0,0,7.031V40.969A7.039,7.039,0,0,0,7.031,48ZM2.813,7.031A4.224,4.224,0,0,1,7.031,2.813H40.969a4.224,4.224,0,0,1,4.219,4.219V40.969a4.224,4.224,0,0,1-4.219,4.219H7.031a4.224,4.224,0,0,1-4.219-4.219Zm0,0" fill="url(#a)"/><path d="M133.656,146.313A12.656,12.656,0,1,0,121,133.656,12.671,12.671,0,0,0,133.656,146.313Zm0-22.5a9.844,9.844,0,1,1-9.844,9.844A9.855,9.855,0,0,1,133.656,123.813Zm0,0" transform="translate(-109.656 -109.656)" fill="url(#a)"/><path d="M365.219,69.438A4.219,4.219,0,1,0,361,65.219,4.224,4.224,0,0,0,365.219,69.438Zm0-5.625a1.406,1.406,0,1,1-1.406,1.406A1.408,1.408,0,0,1,365.219,63.813Zm0,0" transform="translate(-327.156 -55.281)" fill="url(#a)"/></svg>