<svg xmlns="http://www.w3.org/2000/svg" xmlns:xlink="http://www.w3.org/1999/xlink" width="48" height="39.286" viewBox="0 0 48 39.286"><defs><linearGradient id="a" x1="0.5" x2="0.5" y2="1" gradientUnits="objectBoundingBox"><stop offset="0" stop-color="#ffe98d"/><stop offset="1" stop-color="#e19f27"/></linearGradient></defs><path d="M48,5.247c-3.019.139-2.953.128-3.295.156L46.493.3s-5.582,2.053-7,2.421A11.2,11.2,0,0,0,26.307,1.657a9.135,9.135,0,0,0-4.391,9.393A24.364,24.364,0,0,1,6.132,2.163L4.808.573,3.818,2.39a10.981,10.981,0,0,0-1.17,7.392,10.621,10.621,0,0,0,1.029,2.886l-1.136-.44-.135,1.9a10.127,10.127,0,0,0,1.718,6.02A10.705,10.705,0,0,0,5.462,21.8l-.587-.09.716,2.175a10.573,10.573,0,0,0,5.435,6.3c-2.535,1.076-4.582,1.762-7.948,2.869L0,34.059l2.844,1.555a29.851,29.851,0,0,0,8.7,3.167c8.416,1.32,17.89.245,24.269-5.5,5.373-4.839,7.136-11.722,6.769-18.884a4.475,4.475,0,0,1,.836-2.914C44.612,9.893,47.992,5.258,48,5.247ZM41.172,9.8a7.288,7.288,0,0,0-1.394,4.742c.37,7.225-1.6,12.828-5.843,16.653C28.974,35.661,20.972,37.415,11.981,36a21.771,21.771,0,0,1-4.7-1.4,74.585,74.585,0,0,0,8.52-3.5l4.912-2.325-5.424-.347a7.67,7.67,0,0,1-6.091-3.469,9.728,9.728,0,0,0,2.065-.344l5.173-1.441L11.216,21.9a7.769,7.769,0,0,1-4.745-3.3,7.956,7.956,0,0,1-1.028-2.269,13.021,13.021,0,0,0,2.116.338l4.828.478L8.562,14.163A8.051,8.051,0,0,1,5.511,5.679a27.981,27.981,0,0,0,19.717,8.487,16.652,16.652,0,0,0-.288-2.385,6.457,6.457,0,0,1,2.838-7.73,8.4,8.4,0,0,1,9.91.821A2.517,2.517,0,0,0,40,5.489a19.437,19.437,0,0,0,1.9-.579L40.688,8.374h1.548c-.292.392-.643.861-1.064,1.423Zm0,0" transform="translate(0 0)" fill="url(#a)"/></svg>